<?xml version="1.0" encoding="utf-8"?>
<!-- Generator: Adobe Illustrator 15.1.0, SVG Export Plug-In  -->
<!DOCTYPE svg PUBLIC "-//W3C//DTD SVG 1.1//EN" "http://www.w3.org/Graphics/SVG/1.1/DTD/svg11.dtd" [
	<!ENTITY ns_flows "http://ns.adobe.com/Flows/1.0/">
]>
<svg version="1.1"
	 xmlns="http://www.w3.org/2000/svg" xmlns:xlink="http://www.w3.org/1999/xlink" xmlns:a="http://ns.adobe.com/AdobeSVGViewerExtensions/3.0/"
	 x="0px" y="0px" width="500px" height="237px" viewBox="0 0.261 500 237" enable-background="new 0 0.261 500 237"
	 xml:space="preserve">
<defs>
</defs>
<polygon fill="#FFFFFF" enable-background="new    " points="250,238 0,238 51.37,190 200,190 200,141 100.457,141 149.917,95 
	200,95 200,47.792 250,0.261 "/>
<polygon fill="#895584" points="0,0 250,0 199.89,48 51,48 51,95 149.917,95 100.457,141 51,141 51,189.555 0,237.723 "/>
<polygon fill="#895584" points="250,237.723 500,0.28 431.322,0.261 301,121.284 301,0 250,0 "/>
<polygon fill="#FFFFFF" enable-background="new    " points="500,0.262 250,237.705 318.678,237.723 449,116.7 449,238 500,238 "/>
</svg>
