<?xml version="1.0" encoding="utf-8"?>
<!-- Generator: Adobe Illustrator 15.1.0, SVG Export Plug-In . SVG Version: 6.00 Build 0)  -->
<!DOCTYPE svg PUBLIC "-//W3C//DTD SVG 1.1//EN" "http://www.w3.org/Graphics/SVG/1.1/DTD/svg11.dtd">
<svg version="1.1" id="Layer_1" xmlns="http://www.w3.org/2000/svg" xmlns:xlink="http://www.w3.org/1999/xlink" x="0px" y="0px"
	 width="50px" height="50px" viewBox="0 0 50 50" enable-background="new 0 0 50 50" xml:space="preserve">
<g>
	<rect fill="#895584" width="50" height="50"/>
	<polygon fill="#F0EFF4" points="8.75,8.75 42.04,8.75 35.367,15.356 15.541,15.356 15.541,21.824 28.713,21.824 22.127,28.155 
		15.541,28.155 15.541,34.838 8.75,41.468 	"/>
</g>
<g>
	<rect x="95.104" fill="#895584" width="50" height="50"/>
	<polygon fill="#F0EFF4" points="128.235,10.991 134.907,9.243 132.177,13.635 137.506,13.854 132.729,19.138 133.584,31.478 
		121.933,41.617 113.545,40.106 104.09,37.985 113.298,32.716 108.461,23.909 103.576,15.275 119.966,18.724 122.424,9.942 	"/>
</g>
<g>
	<rect x="180.895" fill="#895584" width="50" height="50"/>
	<polygon fill="#F0EFF4" points="222.295,41.29 222.254,41.25 222.254,41.327 205.886,24.804 205.886,41.326 199.465,41.326 
		199.424,8.979 199.465,9.02 199.465,8.942 215.833,25.465 215.833,8.941 222.254,8.941 	"/>
	<polygon fill="#F0EFF4" points="196.103,19.276 196.103,41.327 189.681,41.327 189.645,19.276 	"/>
	<rect x="189.645" y="8.941" fill="#F0EFF4" width="6.458" height="6.987"/>
</g>
<g>
	<rect x="266.849" fill="#895584" width="50" height="50"/>
	<g>
		<polygon fill="#F0EFF4" points="287.209,14.516 297.786,14.516 304.948,8.75 304.77,18.433 308.638,31.639 300.314,41.043 
			283.03,41.043 275.266,31.748 279.243,18.65 279.127,8.75 		"/>
		<polygon fill="#895584" points="283.916,24.296 300.251,24.296 303.867,31.308 298.69,38.099 284.835,38.055 279.982,31.308 		"/>
		<rect x="294.082" y="27.905" fill="#F0EFF4" width="3.912" height="6.805"/>
		<rect x="286.032" y="27.905" fill="#F0EFF4" width="3.912" height="6.805"/>
	</g>
</g>
</svg>
