<?xml version="1.0" encoding="utf-8"?>
<!-- Generator: Adobe Illustrator 15.1.0, SVG Export Plug-In . SVG Version: 6.00 Build 0)  -->
<!DOCTYPE svg PUBLIC "-//W3C//DTD SVG 1.1//EN" "http://www.w3.org/Graphics/SVG/1.1/DTD/svg11.dtd">
<svg version="1.1" id="Layer_1" xmlns="http://www.w3.org/2000/svg" xmlns:xlink="http://www.w3.org/1999/xlink" x="0px" y="0px"
	 width="50px" height="50px" viewBox="0 0 50 50" enable-background="new 0 0 50 50" xml:space="preserve">
<g>
	<rect x="-266.849" fill="#895584" width="50" height="50"/>
	<polygon fill="#F0EFF4" points="-258.099,8.75 -224.809,8.75 -231.481,15.356 -251.308,15.356 -251.308,21.824 -238.136,21.824 
		-244.722,28.155 -251.308,28.155 -251.308,34.838 -258.099,41.468 	"/>
</g>
<g>
	<rect x="-171.744" fill="#895584" width="50" height="50"/>
	<polygon fill="#F0EFF4" points="-138.613,10.991 -131.941,9.243 -134.672,13.635 -129.343,13.854 -134.12,19.138 -133.265,31.478 
		-144.916,41.617 -153.304,40.106 -162.759,37.985 -153.551,32.716 -158.388,23.909 -163.272,15.275 -146.883,18.724 
		-144.425,9.942 	"/>
</g>
<g>
	<rect x="-85.954" fill="#895584" width="50" height="50"/>
	<polygon fill="#F0EFF4" points="-44.554,41.29 -44.595,41.25 -44.595,41.327 -60.963,24.804 -60.963,41.326 -67.384,41.326 
		-67.425,8.979 -67.384,9.02 -67.384,8.942 -51.016,25.465 -51.016,8.941 -44.595,8.941 	"/>
	<polygon fill="#F0EFF4" points="-70.746,19.276 -70.746,41.327 -77.168,41.327 -77.204,19.276 	"/>
	<rect x="-77.204" y="8.941" fill="#F0EFF4" width="6.458" height="6.987"/>
</g>
<g>
	<rect fill="#895584" width="50" height="50"/>
	<g>
		<polygon fill="#F0EFF4" points="20.36,14.516 30.938,14.516 38.1,8.75 37.921,18.433 41.789,31.639 33.466,41.043 16.182,41.043 
			8.417,31.748 12.395,18.65 12.278,8.75 		"/>
		<polygon fill="#895584" points="17.067,24.296 33.402,24.296 37.019,31.308 31.842,38.099 17.986,38.055 13.134,31.308 		"/>
		<rect x="27.233" y="27.905" fill="#F0EFF4" width="3.912" height="6.805"/>
		<rect x="19.184" y="27.905" fill="#F0EFF4" width="3.912" height="6.805"/>
	</g>
</g>
</svg>
