<?xml version="1.0" encoding="utf-8"?>
<!-- Generator: Adobe Illustrator 15.1.0, SVG Export Plug-In . SVG Version: 6.00 Build 0)  -->
<!DOCTYPE svg PUBLIC "-//W3C//DTD SVG 1.1//EN" "http://www.w3.org/Graphics/SVG/1.1/DTD/svg11.dtd">
<svg version="1.1" id="Layer_1" xmlns="http://www.w3.org/2000/svg" xmlns:xlink="http://www.w3.org/1999/xlink" x="0px" y="0px"
	 width="50px" height="50px" viewBox="0 0 50 50" enable-background="new 0 0 50 50" xml:space="preserve">
<g>
	<rect x="-180.895" fill="#895584" width="50" height="50"/>
	<polygon fill="#F0EFF4" points="-172.145,8.75 -138.854,8.75 -145.527,15.356 -165.354,15.356 -165.354,21.824 -152.182,21.824 
		-158.768,28.155 -165.354,28.155 -165.354,34.838 -172.145,41.468 	"/>
</g>
<g>
	<rect x="-85.79" fill="#895584" width="50" height="50"/>
	<polygon fill="#F0EFF4" points="-52.659,10.991 -45.987,9.243 -48.718,13.635 -43.389,13.854 -48.166,19.138 -47.311,31.478 
		-58.962,41.617 -67.35,40.106 -76.805,37.985 -67.597,32.716 -72.434,23.909 -77.318,15.275 -60.929,18.724 -58.471,9.942 	"/>
</g>
<g>
	<rect fill="#895584" width="50" height="50"/>
	<polygon fill="#F0EFF4" points="41.4,41.29 41.359,41.25 41.359,41.327 24.991,24.804 24.991,41.326 18.57,41.326 18.529,8.979 
		18.57,9.02 18.57,8.942 34.938,25.465 34.938,8.941 41.359,8.941 	"/>
	<polygon fill="#F0EFF4" points="15.208,19.276 15.208,41.327 8.786,41.327 8.75,19.276 	"/>
	<rect x="8.75" y="8.941" fill="#F0EFF4" width="6.458" height="6.987"/>
</g>
<g>
	<rect x="85.954" fill="#895584" width="50" height="50"/>
	<g>
		<polygon fill="#F0EFF4" points="106.314,14.516 116.892,14.516 124.054,8.75 123.875,18.433 127.743,31.639 119.42,41.043 
			102.136,41.043 94.371,31.748 98.349,18.65 98.232,8.75 		"/>
		<polygon fill="#895584" points="103.021,24.296 119.356,24.296 122.973,31.308 117.796,38.099 103.94,38.055 99.088,31.308 		"/>
		<rect x="113.188" y="27.905" fill="#F0EFF4" width="3.912" height="6.805"/>
		<rect x="105.138" y="27.905" fill="#F0EFF4" width="3.912" height="6.805"/>
	</g>
</g>
</svg>
