<?xml version="1.0" encoding="utf-8"?>
<!-- Generator: Adobe Illustrator 15.1.0, SVG Export Plug-In . SVG Version: 6.00 Build 0)  -->
<!DOCTYPE svg PUBLIC "-//W3C//DTD SVG 1.1//EN" "http://www.w3.org/Graphics/SVG/1.1/DTD/svg11.dtd">
<svg version="1.1" id="Layer_1" xmlns="http://www.w3.org/2000/svg" xmlns:xlink="http://www.w3.org/1999/xlink" x="0px" y="0px"
	 width="50px" height="50px" viewBox="0 0 50 50" enable-background="new 0 0 50 50" xml:space="preserve">
<g>
	<rect x="-95.104" fill="#895584" width="50" height="50"/>
	<polygon fill="#F0EFF4" points="-86.354,8.75 -53.064,8.75 -59.737,15.356 -79.563,15.356 -79.563,21.824 -66.392,21.824 
		-72.978,28.155 -79.563,28.155 -79.563,34.838 -86.354,41.468 	"/>
</g>
<g>
	<rect fill="#895584" width="50" height="50"/>
	<polygon fill="#F0EFF4" points="33.131,10.991 39.803,9.243 37.072,13.635 42.401,13.854 37.624,19.138 38.479,31.478 
		26.828,41.617 18.44,40.106 8.985,37.985 18.193,32.716 13.356,23.909 8.472,15.275 24.861,18.724 27.319,9.942 	"/>
</g>
<g>
	<rect x="85.79" fill="#895584" width="50" height="50"/>
	<polygon fill="#F0EFF4" points="127.19,41.29 127.149,41.25 127.149,41.327 110.781,24.804 110.781,41.326 104.36,41.326 
		104.319,8.979 104.36,9.02 104.36,8.942 120.729,25.465 120.729,8.941 127.149,8.941 	"/>
	<polygon fill="#F0EFF4" points="100.998,19.276 100.998,41.327 94.576,41.327 94.54,19.276 	"/>
	<rect x="94.54" y="8.941" fill="#F0EFF4" width="6.458" height="6.987"/>
</g>
<g>
	<rect x="171.744" fill="#895584" width="50" height="50"/>
	<g>
		<polygon fill="#F0EFF4" points="192.104,14.516 202.682,14.516 209.844,8.75 209.665,18.433 213.533,31.639 205.21,41.043 
			187.926,41.043 180.161,31.748 184.139,18.65 184.022,8.75 		"/>
		<polygon fill="#895584" points="188.812,24.296 205.146,24.296 208.763,31.308 203.586,38.099 189.73,38.055 184.878,31.308 		"/>
		<rect x="198.978" y="27.905" fill="#F0EFF4" width="3.912" height="6.805"/>
		<rect x="190.928" y="27.905" fill="#F0EFF4" width="3.912" height="6.805"/>
	</g>
</g>
</svg>
